<?xml version="1.0" encoding="UTF-8"?>
<svg xmlns="http://www.w3.org/2000/svg" xmlns:xlink="http://www.w3.org/1999/xlink" width="827pt" height="617pt" viewBox="0 0 827 617" version="1.1">
<g id="surface1">
<path style="fill:none;stroke-width:420;stroke-linecap:butt;stroke-linejoin:miter;stroke:rgb(0%,0%,0%);stroke-opacity:1;stroke-miterlimit:10;" d="M 6152.851563 2262.1875 L 6152.851563 4051.210938 L 2116.054688 4051.210938 L 2116.054688 2262.1875 Z M 6152.851563 2262.1875 " transform="matrix(0.1,0,0,-0.1,0,617)"/>
<path style=" stroke:none;fill-rule:nonzero;fill:rgb(0%,0%,0%);fill-opacity:1;" d="M 414.976563 358.921875 C 446.410156 358.921875 471.898438 333.4375 471.898438 302 C 471.898438 270.5625 446.410156 245.078125 414.976563 245.078125 C 383.539063 245.078125 358.054688 270.5625 358.054688 302 C 358.054688 333.4375 383.539063 358.921875 414.976563 358.921875 "/>
<path style="fill:none;stroke-width:18.59;stroke-linecap:butt;stroke-linejoin:miter;stroke:rgb(0%,0%,0%);stroke-opacity:1;stroke-miterlimit:10;" d="M 4149.765625 2580.78125 C 4464.101563 2580.78125 4718.984375 2835.625 4718.984375 3150 C 4718.984375 3464.375 4464.101563 3719.21875 4149.765625 3719.21875 C 3835.390625 3719.21875 3580.546875 3464.375 3580.546875 3150 C 3580.546875 2835.625 3835.390625 2580.78125 4149.765625 2580.78125 Z M 4149.765625 2580.78125 " transform="matrix(0.1,0,0,-0.1,0,617)"/>
<path style=" stroke:none;fill-rule:nonzero;fill:rgb(100%,100%,100%);fill-opacity:1;" d="M 384.035156 312.085938 L 398.898438 312.085938 C 399.839844 316.375 401.078125 321.5625 407.851563 323.488281 L 407.832031 306.640625 C 398.558594 305.304688 385.183594 301.238281 385.183594 286.328125 C 385.183594 269.5625 403.730469 264.335938 407.851563 264.335938 L 407.851563 254.199219 L 421.828125 254.199219 L 421.828125 264.335938 C 431.257813 264.882813 444.9375 272.761719 444.9375 287.742188 L 430.21875 287.742188 C 429.847656 283.296875 426.398438 278.925781 421.976563 278.613281 L 421.976563 294.0625 C 433.214844 295.214844 446.410156 299.503906 446.410156 314.605469 C 446.410156 327.789063 433.164063 337.40625 421.976563 337.996094 L 421.976563 348.160156 L 407.851563 348.160156 L 407.851563 337.847656 C 399.753906 336.664063 384.953125 328.859375 384.035156 312.085938 "/>
<path style=" stroke:none;fill-rule:nonzero;fill:rgb(0%,0%,0%);fill-opacity:1;" d="M 407.921875 278.765625 L 407.921875 291.566406 C 397.960938 291.410156 397.765625 280.542969 407.921875 278.765625 "/>
<path style=" stroke:none;fill-rule:nonzero;fill:rgb(0%,0%,0%);fill-opacity:1;" d="M 422.140625 309.042969 C 434.46875 309.355469 435.839844 321.601563 422.128906 323.5625 "/>
<path style=" stroke:none;fill-rule:nonzero;fill:rgb(0%,0%,0%);fill-opacity:1;" d="M 422.128906 323.5625 L 422.140625 309.042969 "/>
<path style=" stroke:none;fill-rule:nonzero;fill:rgb(0%,0%,0%);fill-opacity:1;" d="M 508.25 458.171875 C 539.6875 458.171875 565.171875 432.6875 565.171875 401.25 C 565.171875 369.8125 539.6875 344.328125 508.25 344.328125 C 476.8125 344.328125 451.328125 369.8125 451.328125 401.25 C 451.328125 432.6875 476.8125 458.171875 508.25 458.171875 "/>
<path style="fill:none;stroke-width:18.59;stroke-linecap:butt;stroke-linejoin:miter;stroke:rgb(0%,0%,0%);stroke-opacity:1;stroke-miterlimit:10;" d="M 5082.5 1588.28125 C 5396.875 1588.28125 5651.71875 1843.125 5651.71875 2157.5 C 5651.71875 2471.875 5396.875 2726.71875 5082.5 2726.71875 C 4768.125 2726.71875 4513.28125 2471.875 4513.28125 2157.5 C 4513.28125 1843.125 4768.125 1588.28125 5082.5 1588.28125 Z M 5082.5 1588.28125 " transform="matrix(0.1,0,0,-0.1,0,617)"/>
<path style=" stroke:none;fill-rule:nonzero;fill:rgb(100%,100%,100%);fill-opacity:1;" d="M 534.546875 423.996094 L 534.546875 436.269531 L 481.828125 436.269531 L 481.828125 423.996094 C 487.816406 419.984375 490.933594 409.839844 489.015625 404.410156 L 477.992188 404.410156 L 477.992188 391.902344 L 486.859375 391.902344 C 484.460938 386.242188 484.460938 384.351563 484.460938 379.398438 C 484.460938 374.441406 488.535156 358.285156 509.863281 358.394531 C 529.5 358.5 535.199219 374.679688 535.199219 386.242188 L 520.25 386.25 C 519.25 379.25 516.5 373.5 510 373.5 C 500.054688 373.5 500.039063 379.75 500.039063 381.875 C 500.039063 384 500.398438 389.191406 502.433594 392.023438 L 515.375 392.023438 L 515.375 404.292969 L 504.832031 404.292969 C 506.148438 415.503906 499.679688 420.222656 499.320313 423.996094 L 534.546875 423.996094 "/>
<path style=" stroke:none;fill-rule:nonzero;fill:rgb(0%,0%,0%);fill-opacity:1;" d="M 470.25 606.171875 C 501.6875 606.171875 527.171875 580.6875 527.171875 549.25 C 527.171875 517.8125 501.6875 492.328125 470.25 492.328125 C 438.8125 492.328125 413.328125 517.8125 413.328125 549.25 C 413.328125 580.6875 438.8125 606.171875 470.25 606.171875 "/>
<path style="fill:none;stroke-width:18.59;stroke-linecap:butt;stroke-linejoin:miter;stroke:rgb(0%,0%,0%);stroke-opacity:1;stroke-miterlimit:10;" d="M 4702.5 108.28125 C 5016.875 108.28125 5271.71875 363.125 5271.71875 677.5 C 5271.71875 991.875 5016.875 1246.71875 4702.5 1246.71875 C 4388.125 1246.71875 4133.28125 991.875 4133.28125 677.5 C 4133.28125 363.125 4388.125 108.28125 4702.5 108.28125 Z M 4702.5 108.28125 " transform="matrix(0.1,0,0,-0.1,0,617)"/>
<path style=" stroke:none;fill-rule:nonzero;fill:rgb(100%,100%,100%);fill-opacity:1;" d="M 438.257813 514.339844 L 454.792969 514.339844 L 470.128906 541.40625 L 486.769531 514.339844 L 501.996094 514.339844 L 477.316406 557.988281 L 495.769531 557.988281 L 495.769531 571.886719 L 478.035156 571.886719 L 478.035156 591.394531 L 462.941406 591.394531 L 462.941406 571.886719 L 444.007813 571.886719 L 444.007813 558.230469 L 463.179688 558.230469 L 438.257813 514.339844 "/>
<path style=" stroke:none;fill-rule:nonzero;fill:rgb(0%,0%,0%);fill-opacity:1;" d="M 290.75 541.671875 C 322.1875 541.671875 347.671875 516.1875 347.671875 484.75 C 347.671875 453.3125 322.1875 427.828125 290.75 427.828125 C 259.3125 427.828125 233.828125 453.3125 233.828125 484.75 C 233.828125 516.1875 259.3125 541.671875 290.75 541.671875 "/>
<path style="fill:none;stroke-width:18.59;stroke-linecap:butt;stroke-linejoin:miter;stroke:rgb(0%,0%,0%);stroke-opacity:1;stroke-miterlimit:10;" d="M 2907.5 753.28125 C 3221.875 753.28125 3476.71875 1008.125 3476.71875 1322.5 C 3476.71875 1636.875 3221.875 1891.71875 2907.5 1891.71875 C 2593.125 1891.71875 2338.28125 1636.875 2338.28125 1322.5 C 2338.28125 1008.125 2593.125 753.28125 2907.5 753.28125 Z M 2907.5 753.28125 " transform="matrix(0.1,0,0,-0.1,0,617)"/>
<path style=" stroke:none;fill-rule:nonzero;fill:rgb(100%,100%,100%);fill-opacity:1;" d="M 296.464844 473.894531 L 310.84375 473.894531 L 310.84375 481.082031 C 313.960938 477.488281 317.550781 473.652344 325.21875 473.652344 L 325.21875 487.3125 C 313.5 488.75 310.84375 495 310.84375 502.75 L 310.84375 519.902344 L 296.464844 519.902344 L 296.464844 473.894531 "/>
<path style=" stroke:none;fill-rule:nonzero;fill:rgb(100%,100%,100%);fill-opacity:1;" d="M 292.558594 473.894531 L 292.558594 487.433594 L 282.339844 487.433594 L 282.339844 519.902344 L 267.839844 519.902344 L 267.839844 487.550781 L 259.214844 487.550781 L 259.214844 474.011719 L 267.839844 474.011719 L 267.839844 461.914063 C 267.839844 457.238281 272.394531 442.980469 289.527344 442.980469 C 307.019531 442.980469 310.75 456.75 310.75 468.261719 L 296.5 468.261719 C 296.5 460.875 295.5 457 289.644531 457 C 283.375 457 282.339844 461.3125 282.339844 468.144531 L 282.339844 473.894531 L 292.558594 473.894531 "/>
</g>
</svg>
